# xmcd
#
# Track frame offsets: 
#        183
#        13095
#        24713
#        36360
#        49873
#        66243
#        79048
#        94400
#        109568
#        130278
#        143215
#        158790
#        180095
#        195465
#        215288
#        235795
#
# Disc length: 3689 seconds
#
# Revision: 3
# Processed by: cddbd v1.5.2PL0 Copyright (c) Steve Scherf et al.
# Submitted via: ExactAudioCopy v0.95b3
#
DISCID=d40e6710
DTITLE=Christophe (Daniel Bevilacqua) - Succès fous - CD1
DYEAR=1990
DGENRE=
TTITLE0=Aline
TTITLE1=Les marionnettes
TTITLE2=Excusez-moi monsieur le professeur
TTITLE3=Main dans la main
TTITLE4=Les jours où rien ne va
TTITLE5=Mes passagères
TTITLE6=Belle
TTITLE7=Petite fille du soleil
TTITLE8=La dolce vita
TTITLE9=Señorita
TTITLE10=Merci John d'être venu
TTITLE11=L'Italie
TTITLE12=Méchamment rock'n'roll
TTITLE13=Les tabourets du bar
TTITLE14=Le petit gars
TTITLE15=Le dernier des Bevilacqua
EXTD=
EXTT0=
EXTT1=
EXTT2=
EXTT3=
EXTT4=
EXTT5=
EXTT6=
EXTT7=
EXTT8=
EXTT9=
EXTT10=
EXTT11=
EXTT12=
EXTT13=
EXTT14=
EXTT15=
PLAYORDER=
